<svg height="512pt" viewBox="0 -38 512 512" width="512pt" xmlns="http://www.w3.org/2000/svg"><path d="m120 195c-66.273438 0-120 53.726562-120 120s53.726562 120 120 120 120-53.726562 120-120-53.726562-120-120-120zm0 165c-24.8125 0-45-20.1875-45-45s20.1875-45 45-45 45 20.1875 45 45-20.1875 45-45 45zm0 0"/><path d="m120 300c-8.269531 0-15 6.730469-15 15s6.730469 15 15 15 15-6.730469 15-15-6.730469-15-15-15zm0 0"/><path d="m392 90c0-8.269531 6.730469-15 15-15v-30c-24.8125 0-45 20.1875-45 45v45h30zm0 0"/><path d="m318.109375 285c20.777344-35.839844 59.566406-60 103.890625-60 21.84375 0 42.339844 5.867188 60 16.109375v-16.109375c0-33.085938-26.914062-60-60-60h-202.617188c-28.5-18.945312-62.671874-30-99.382812-30-41.738281 0-82.421875 14.613281-114.550781 41.148438l19.101562 23.132812c26.769531-22.105469 60.667969-34.28125 95.449219-34.28125 72.4375 0 133.046875 51.617188 146.984375 120zm0 0"/><path d="m305.796875 315h-35.796875v45h32.9375c-.617188-4.914062-.9375-9.921875-.9375-15 0-10.355469 1.320312-20.40625 3.796875-30zm0 0"/><path d="m422 255c-49.707031 0-90 40.292969-90 90s40.292969 90 90 90 90-40.292969 90-90-40.292969-90-90-90zm0 105c-8.285156 0-15-6.714844-15-15s6.714844-15 15-15 15 6.714844 15 15-6.714844 15-15 15zm0 0"/><path d="m75 109.894531c14.703125-3.230469 29.789062-4.894531 45-4.894531 38.285156 0 75.445312 10.34375 108.066406 30h58.433594l-27.5625-105h26.0625v-30h-240v30h30zm0 0"/></svg>