<?xml version="1.0" encoding="iso-8859-1"?>
<!-- Generator: Adobe Illustrator 19.0.0, SVG Export Plug-In . SVG Version: 6.00 Build 0)  -->
<svg version="1.1" id="Capa_1" xmlns="http://www.w3.org/2000/svg" xmlns:xlink="http://www.w3.org/1999/xlink" x="0px" y="0px"
	 viewBox="0 0 512 512" style="enable-background:new 0 0 512 512;" xml:space="preserve">
<g>
	<g>
		<path d="M512,121H150v30H45.252L0,252.817V361h62.58c6.192,17.458,22.865,30,42.42,30s36.228-12.542,42.42-30h187.16
			c6.192,17.458,22.865,30,42.42,30c11.517,0,22.032-4.354,30-11.495c7.968,7.142,18.483,11.495,30,11.495c24.813,0,45-20.187,45-45
			c0-15.114-7.498-28.502-18.961-36.667H512V121z M38.081,241l26.667-60H100v60H38.081z M105,361c-8.271,0-15-6.729-15-15
			s6.729-15,15-15s15,6.729,15,15S113.271,361,105,361z M332,331H180v-21.667h152V331z M377,361c-8.271,0-15-6.729-15-15
			s6.729-15,15-15s15,6.729,15,15S385.271,361,377,361z M437,361c-8.271,0-15-6.729-15-15s6.729-15,15-15s15,6.729,15,15
			S445.271,361,437,361z"/>
	</g>
</g>
<g>
</g>
<g>
</g>
<g>
</g>
<g>
</g>
<g>
</g>
<g>
</g>
<g>
</g>
<g>
</g>
<g>
</g>
<g>
</g>
<g>
</g>
<g>
</g>
<g>
</g>
<g>
</g>
<g>
</g>
</svg>
